<svg width="40" height="25" viewBox="0 0 40 25" fill="none" xmlns="http://www.w3.org/2000/svg">
<rect x="0.5" y="1.09619" width="39" height="23" rx="4.04936" fill="white" stroke="#D6D8EA"/>
<path fill-rule="evenodd" clip-rule="evenodd" d="M18.6866 8.9292H23.1389C25.5294 8.9292 26.4292 10.0151 26.2902 11.6125C26.0615 14.2463 24.2859 15.7035 21.9322 15.7035H20.7438C20.4209 15.7035 20.2037 15.8953 20.1163 16.4151L19.606 19.4346C19.5727 19.6305 19.4578 19.746 19.2854 19.7594H16.4938C16.2306 19.7594 16.1375 19.5789 16.2065 19.1881L17.912 9.50154C17.9798 9.11379 18.2154 8.9292 18.6866 8.9292Z" fill="#009EE3"/>
<path fill-rule="evenodd" clip-rule="evenodd" d="M15.9001 5.59619H20.3569C21.6119 5.59619 23.1014 5.63229 24.0967 6.42119C24.7621 6.94816 25.1115 7.78657 25.031 8.68686C24.7575 11.7404 22.7221 13.4512 19.9915 13.4512H17.7941C17.4194 13.4512 17.1723 13.674 17.0666 14.2762L16.4529 17.7774C16.4126 18.0042 16.3035 18.1383 16.1035 18.1548H13.3579C13.0533 18.1548 12.9453 17.9454 13.0246 17.4927L15.0013 6.26032C15.0806 5.81069 15.3553 5.59619 15.9001 5.59619Z" fill="#113984"/>
<path fill-rule="evenodd" clip-rule="evenodd" d="M17.1313 13.9235L17.9094 9.50257C17.9772 9.11482 18.214 8.9292 18.6852 8.9292H23.1374C23.8741 8.9292 24.4706 9.03232 24.9372 9.22311C24.4901 11.9415 22.5306 13.4512 19.9654 13.4512H17.7669C17.4773 13.4512 17.2612 13.5843 17.1313 13.9235Z" fill="#172C70"/>
</svg>
